<svg id="Layer_1" data-name="Layer 1" xmlns="http://www.w3.org/2000/svg" viewBox="0 0 128 128"><defs><style>.cls-1{fill:#333;}</style></defs><path class="cls-1" d="M33.6,82.7h-9a4.4,4.4,0,0,1-4.4-4.4V73.9A8.8,8.8,0,0,1,29,65.2h8.8a8.9,8.9,0,0,1,6.1,2.5A20.4,20.4,0,0,0,33.6,82.7Zm-9-30.6a8.8,8.8,0,1,1,8.8,8.7A8.7,8.7,0,0,1,24.6,52.1ZM90.2,85.3v4a6.5,6.5,0,0,1-6.5,6.5H44.3a6.5,6.5,0,0,1-6.5-6.5v-4A15.7,15.7,0,0,1,53.5,69.6h1.1A22.8,22.8,0,0,0,64,71.8a22.8,22.8,0,0,0,9.4-2.2h1.1A15.7,15.7,0,0,1,90.2,85.3ZM48.7,49.9A15.3,15.3,0,1,1,64,65.2,15.2,15.2,0,0,1,48.7,49.9Zm59.1,24v4.4a4.4,4.4,0,0,1-4.4,4.4h-9a20.4,20.4,0,0,0-10.3-15,8.9,8.9,0,0,1,6.1-2.5H99A8.8,8.8,0,0,1,107.8,73.9ZM85.9,52.1a8.8,8.8,0,1,1,8.7,8.7A8.7,8.7,0,0,1,85.9,52.1Z"/></svg>