<?xml version="1.0" encoding="utf-8"?>
<!-- Generator: Adobe Illustrator 24.3.0, SVG Export Plug-In . SVG Version: 6.00 Build 0)  -->
<svg version="1.1" id="Layer_1" xmlns="http://www.w3.org/2000/svg" xmlns:xlink="http://www.w3.org/1999/xlink" x="0px" y="0px"
	 viewBox="0 0 128 128" style="enable-background:new 0 0 128 128;" xml:space="preserve">
<style type="text/css">
	.st0{fill:#333333;}
</style>
<path class="st0" d="M96.8,70.2l6.5-28.4c0.5-2.1-1.1-4-3.2-4H46.4l-1.3-6.1c-0.3-1.5-1.7-2.6-3.2-2.6h-14c-1.8,0-3.3,1.5-3.3,3.3
	v2.2c0,1.8,1.5,3.3,3.3,3.3h9.6l9.6,47c-2.4,1.4-4,4-3.8,7.1c0.2,3.9,3.4,7.1,7.3,7.2c4.4,0.2,8-3.3,8-7.6c0-2.1-0.9-4.1-2.3-5.5
	h28.7c-1.5,1.4-2.4,3.5-2.3,5.7c0.1,4.1,3.5,7.4,7.5,7.4c4.3,0.1,7.8-3.4,7.8-7.7c0-3-1.8-5.7-4.3-6.9l0.8-3.3c0.5-2.1-1.1-4-3.2-4
	H54.4l-0.9-4.4h40.1C95.2,72.8,96.5,71.7,96.8,70.2z M78.8,53.3c-3.9,3.4-7.2,7.4-10.1,11.7c-0.6,0.9-1.9,1-2.6,0.1L66,64.9
	l-8.5-11.5c-0.5-0.7-0.4-1.8,0.4-2.3l1.4-0.9c0.8-0.5,1.8-0.3,2.3,0.5l5.1,8.5c0.5,0.9,1.8,1.1,2.5,0.3c2.6-2.8,5.5-5.4,8.7-7.6
	c4.4-3,9.4-5.2,14.6-6.1C87.3,47.2,82.7,49.9,78.8,53.3z"/>
</svg>
