<svg id="Layer_1" data-name="Layer 1" xmlns="http://www.w3.org/2000/svg" viewBox="0 0 128 128"><defs><style>.cls-1{fill:#333;}</style></defs><path class="cls-1" d="M99,70.5V91.4a4.4,4.4,0,0,1-4.4,4.4,4.2,4.2,0,0,1-2.7-.9L80.3,85.6a33.3,33.3,0,0,0-20.7-7.3H55.8a16.1,16.1,0,0,0-.6,4.4,17.2,17.2,0,0,0,3.6,10.6,4.4,4.4,0,0,1-3.6,6.9H45.1a4.3,4.3,0,0,1-3.9-2.3,35.3,35.3,0,0,1-3.5-15.2,32.5,32.5,0,0,1,.3-4.4H33.4a8.7,8.7,0,0,1-8.8-8.7V56.4a8.7,8.7,0,0,1,8.8-8.7H59.6a33.8,33.8,0,0,0,20.7-7.2l11.6-9.3a4.1,4.1,0,0,1,2.7-1A4.5,4.5,0,0,1,99,34.6V55.5a8.6,8.6,0,0,1,0,15ZM90.2,43.7l-4.5,3.6a41.8,41.8,0,0,1-26.1,9.1V69.6a41.8,41.8,0,0,1,26.1,9.1l4.5,3.6Z"/></svg>