<?xml version="1.0" encoding="utf-8"?>
<!-- Generator: Adobe Illustrator 24.3.0, SVG Export Plug-In . SVG Version: 6.00 Build 0)  -->
<svg version="1.1" id="Layer_1" xmlns="http://www.w3.org/2000/svg" xmlns:xlink="http://www.w3.org/1999/xlink" x="0px" y="0px"
	 viewBox="0 0 128 128" style="enable-background:new 0 0 128 128;" xml:space="preserve">
<style type="text/css">
	.st0{fill:#333333;}
</style>
<g>
	<polygon class="st0" points="58,48.8 56.3,50.4 58.5,52.6 59.8,51.2 60.1,50.9 	"/>
	<polygon class="st0" points="60.1,54.2 68.8,62.9 71.3,63.7 70.5,61.3 61.7,52.6 	"/>
	<path class="st0" d="M70.2,30.9c-0.9-2.6-3.4-4.4-6.2-4.4s-5.3,1.8-6.2,4.4H35.4v70.6h57.1V30.9H70.2z M53,35.3h8.8v-2.2
		c0-1.2,1-2.2,2.2-2.2s2.2,1,2.2,2.2v2.2H75v4.4H53V35.3z M74.9,67.4l-7.4-2.5L53.1,50.4l4.9-4.9l5.4,5.4l9.1,9.1L74.9,67.4z
		 M85.5,90.9H42.5v-1.7h43.1V90.9z M85.5,83.5H42.5v-1.7h43.1V83.5z M85.5,76.2H42.5v-1.7h43.1V76.2z"/>
</g>
</svg>
