<svg id="Layer_1" data-name="Layer 1" xmlns="http://www.w3.org/2000/svg" viewBox="0 0 128 128"><defs><style>.cls-1{fill:#333;}</style></defs><path class="cls-1" d="M93.4,82a29.1,29.1,0,0,0,0,10.2,3.3,3.3,0,0,1,1.2,2.5v2.2a3.3,3.3,0,0,1-3.3,3.3H46.5A13.1,13.1,0,0,1,33.4,87.1V43.3A13.1,13.1,0,0,1,46.5,30.2H91.3a3.3,3.3,0,0,1,3.3,3.3V79.4A3.6,3.6,0,0,1,93.4,82Zm-7.9.7h-39a4.4,4.4,0,0,0-4.4,4.4,4.4,4.4,0,0,0,4.4,4.3h39A63.1,63.1,0,0,1,85.5,82.7ZM50.9,51.3a.8.8,0,0,0,.8.8h29a.9.9,0,0,0,.8-.8V48.5a.9.9,0,0,0-.8-.8h-29a.8.8,0,0,0-.8.8Zm0,8.7a.7.7,0,0,0,.8.8h29a.8.8,0,0,0,.8-.8V57.3a.9.9,0,0,0-.8-.9h-29a.8.8,0,0,0-.8.9Z"/></svg>