<svg id="Layer_1" data-name="Layer 1" xmlns="http://www.w3.org/2000/svg" viewBox="0 0 128 128"><defs><style>.cls-1{fill:#333;}</style></defs><path class="cls-1" d="M94.6,45.5v6.6H33.4V45.5a6.6,6.6,0,0,1,6.5-6.6h6.6V32.4a2.2,2.2,0,0,1,2.2-2.2h4.4a2.1,2.1,0,0,1,2.1,2.2v6.5H72.8V32.4a2.1,2.1,0,0,1,2.1-2.2h4.4a2.2,2.2,0,0,1,2.2,2.2v6.5h6.6A6.6,6.6,0,0,1,94.6,45.5ZM33.4,56.4H94.6V93.6a6.5,6.5,0,0,1-6.5,6.6H39.9a6.5,6.5,0,0,1-6.5-6.6Zm8.7,15.9a1.7,1.7,0,0,0,1.7,1.6h5.4a1.7,1.7,0,0,0,1.7-1.6V66.8a1.7,1.7,0,0,0-1.7-1.6H43.8a1.7,1.7,0,0,0-1.7,1.6Zm0,17.5a1.7,1.7,0,0,0,1.7,1.6h5.4a1.7,1.7,0,0,0,1.7-1.6V84.3a1.7,1.7,0,0,0-1.7-1.6H43.8a1.7,1.7,0,0,0-1.7,1.6ZM59.6,72.3a1.7,1.7,0,0,0,1.7,1.6h5.4a1.7,1.7,0,0,0,1.7-1.6V66.8a1.7,1.7,0,0,0-1.7-1.6H61.3a1.7,1.7,0,0,0-1.7,1.6Zm0,17.5a1.7,1.7,0,0,0,1.7,1.6h5.4a1.7,1.7,0,0,0,1.7-1.6V84.3a1.7,1.7,0,0,0-1.7-1.6H61.3a1.7,1.7,0,0,0-1.7,1.6ZM77.1,72.3a1.7,1.7,0,0,0,1.7,1.6h5.4a1.7,1.7,0,0,0,1.7-1.6V66.8a1.7,1.7,0,0,0-1.7-1.6H78.8a1.7,1.7,0,0,0-1.7,1.6Zm0,17.5a1.7,1.7,0,0,0,1.7,1.6h5.4a1.7,1.7,0,0,0,1.7-1.6V84.3a1.7,1.7,0,0,0-1.7-1.6H78.8a1.7,1.7,0,0,0-1.7,1.6Z"/></svg>