<svg id="Layer_1" data-name="Layer 1" xmlns="http://www.w3.org/2000/svg" viewBox="0 0 128 128"><defs><style>.cls-1{fill:#333;}</style></defs><path class="cls-1" d="M107.8,38.9V91.4a4.4,4.4,0,0,1-4.4,4.4H24.6a4.4,4.4,0,0,1-4.4-4.4V38.9a4.4,4.4,0,0,1,4.4-4.3h78.8A4.4,4.4,0,0,1,107.8,38.9Zm-57.7,30a6.2,6.2,0,0,0-4.3-6l-6.1-1.8a1.8,1.8,0,0,1-1.2-1.8,1.7,1.7,0,0,1,1.6-1.8h3.8a3.5,3.5,0,0,1,1.8.5,1.1,1.1,0,0,0,1.4-.1l1.6-1.5a1,1,0,0,0-.1-1.6,7.3,7.3,0,0,0-4.3-1.6V51a1.1,1.1,0,0,0-1.1-1.1H41A1.1,1.1,0,0,0,39.9,51v2.2a6.1,6.1,0,0,0-5.8,6.1,6.3,6.3,0,0,0,4.3,6l6.2,1.8a1.8,1.8,0,0,1,1.2,1.8,1.8,1.8,0,0,1-1.6,1.8H40.3a3.4,3.4,0,0,1-1.7-.5,1.1,1.1,0,0,0-1.4.1l-1.6,1.5a1,1,0,0,0,0,1.6A7.9,7.9,0,0,0,39.9,75v2.2A1.1,1.1,0,0,0,41,78.3h2.2a1.1,1.1,0,0,0,1.1-1.1V75A6.1,6.1,0,0,0,50.1,68.9ZM99,57.5a1.1,1.1,0,0,0-1.1-1.1H60.7a1.1,1.1,0,0,0-1.1,1.1v2.2a1.1,1.1,0,0,0,1.1,1.1H97.9A1.1,1.1,0,0,0,99,59.7ZM77.1,70.7A1.1,1.1,0,0,0,76,69.6H60.7a1.1,1.1,0,0,0-1.1,1.1v2.2a1,1,0,0,0,1.1,1H76a1,1,0,0,0,1.1-1Zm21.9,0a1.1,1.1,0,0,0-1.1-1.1H87a1.1,1.1,0,0,0-1.1,1.1v2.2a1,1,0,0,0,1.1,1H97.9a1,1,0,0,0,1.1-1Z"/></svg>